<svg width="60" height="60" viewBox="0 0 60 60" fill="none" xmlns="http://www.w3.org/2000/svg">
<path d="M52.2656 55.5469V52.5173L52.2642 52.5146H1.17188V55.5469C1.17188 57.3591 2.64094 58.8281 4.45312 58.8281H55.5462C53.7343 58.8278 52.2656 57.3588 52.2656 55.5469Z" fill="#F7D145"/>
<path d="M55.3846 18.4615H8.07692V13.6793C8.07692 11.2225 9.93082 9.23077 12.2176 9.23077H51.2439C53.5307 9.23077 55.3846 11.2225 55.3846 13.6793V18.4615Z" fill="#F7D145"/>
<path d="M26.5131 43.3594C24.7009 43.3594 23.2319 41.8903 23.2319 40.0781C23.2319 38.2659 24.7009 36.7969 26.5131 36.7969C28.3253 36.7969 29.7944 38.2659 29.7944 40.0781C29.7944 41.8903 28.3253 43.3594 26.5131 43.3594Z" fill="#F7D145"/>
<path d="M37.4507 43.3594C35.6385 43.3594 34.1694 41.8903 34.1694 40.0781C34.1694 38.2659 35.6385 36.7969 37.4507 36.7969C39.2628 36.7969 40.7319 38.2659 40.7319 40.0781C40.7319 41.8903 39.2628 43.3594 37.4507 43.3594Z" fill="#F7D145"/>
<path d="M48.3881 43.3594C46.5759 43.3594 45.1069 41.8903 45.1069 40.0781C45.1069 38.2659 46.5759 36.7969 48.3881 36.7969C50.2003 36.7969 51.6694 38.2659 51.6694 40.0781C51.6694 41.8903 50.2003 43.3594 48.3881 43.3594Z" fill="#F7D145"/>
<path d="M15.5756 31.1719C13.7634 31.1719 12.2944 29.7028 12.2944 27.8906C12.2944 26.0784 13.7634 24.6094 15.5756 24.6094C17.3878 24.6094 18.8569 26.0784 18.8569 27.8906C18.8569 29.7028 17.3878 31.1719 15.5756 31.1719Z" fill="#F7D145"/>
<path d="M37.4507 31.1719C35.6386 31.1719 34.1695 29.7028 34.1695 27.8906C34.1695 26.0784 35.6386 24.6094 37.4507 24.6094C39.2629 24.6094 40.732 26.0784 40.732 27.8906C40.732 29.7028 39.2629 31.1719 37.4507 31.1719Z" fill="#F7D145"/>
<path d="M26.5132 31.1719C24.701 31.1719 23.232 29.7028 23.232 27.8906C23.232 26.0784 24.701 24.6094 26.5132 24.6094C28.3254 24.6094 29.7945 26.0784 29.7945 27.8906C29.7945 29.7028 28.3254 31.1719 26.5132 31.1719Z" fill="#F7D145"/>
<path d="M48.3882 31.1719C46.576 31.1719 45.107 29.7028 45.107 27.8906C45.107 26.0784 46.576 24.6094 48.3882 24.6094C50.2004 24.6094 51.6695 26.0784 51.6695 27.8906C51.6695 29.7028 50.2004 31.1719 48.3882 31.1719Z" fill="#F7D145"/>
<path d="M10.6031 52.5C15.263 52.5 19.0406 48.7224 19.0406 44.0625C19.0406 39.4026 15.263 35.625 10.6031 35.625C5.94321 35.625 2.16561 39.4026 2.16561 44.0625C2.16561 48.7224 5.94321 52.5 10.6031 52.5Z" fill="#F7D145"/>
<path d="M54.1406 5.15625H48.5546V3.51562C48.5546 1.57711 46.9775 0 45.039 0C43.1005 0 41.5234 1.57711 41.5234 3.51562V5.15625H21.8359V3.51562C21.8359 1.57711 20.2588 0 18.3203 0C16.3818 0 14.8046 1.57711 14.8046 3.51562V5.19961C14.705 5.17207 14.6006 5.15625 14.4922 5.15625H9.82301C6.59215 5.15625 3.96363 7.78477 3.96363 11.0156V30.9765C3.96363 31.6238 4.4884 32.1484 5.13551 32.1484C5.78262 32.1484 6.30738 31.6238 6.30738 30.9765V17.2266H48.5546C49.2018 17.2266 49.7265 16.7019 49.7265 16.0547C49.7265 15.4075 49.2018 14.8828 48.5546 14.8828H6.30738V11.0156C6.30738 9.07711 7.88449 7.5 9.82301 7.5H14.4922C14.6006 7.5 14.705 7.48406 14.8046 7.45664V8.96484C14.8046 10.9034 16.3818 12.4805 18.3203 12.4805C20.2588 12.4805 21.8359 10.9034 21.8359 8.96484V7.5H41.5234V8.96484C41.5234 10.9034 43.1005 12.4805 45.039 12.4805C46.9775 12.4805 48.5546 10.9034 48.5546 8.96484V7.5H54.1406C56.0791 7.5 57.6562 9.07711 57.6562 11.0156V55.5462C57.6562 56.7096 56.7097 57.6562 55.5462 57.6562C54.3826 57.6562 53.4361 56.7096 53.4361 55.5462V52.5146C53.4361 51.8674 52.9113 51.3428 52.2642 51.3428H38.6329C37.9857 51.3428 37.461 51.8674 37.461 52.5146C37.461 53.1619 37.9857 53.6865 38.6329 53.6865H51.0923V55.5462C51.0923 56.3092 51.2855 57.0278 51.625 57.6562H4.45312C3.29004 57.6562 2.34375 56.71 2.34375 55.5469V53.6865H28.5732C29.2204 53.6865 29.7451 53.1619 29.7451 52.5146C29.7451 51.8674 29.2204 51.3428 28.5732 51.3428H16.8643C18.9121 49.5792 20.2124 46.9706 20.2124 44.0625C20.2124 38.7639 15.9016 34.4531 10.603 34.4531C5.30437 34.4531 0.993633 38.7639 0.993633 44.0625C0.993633 46.9706 2.29395 49.5792 4.34168 51.3428H1.17188C0.524766 51.3428 0 51.8674 0 52.5146V55.5469C0 58.0023 1.9977 60 4.45312 60H55.5462C58.002 60 60 58.0021 60 55.5462V11.0156C60 7.78477 57.3715 5.15625 54.1406 5.15625ZM19.4921 8.96484C19.4921 9.61102 18.9664 10.1367 18.3203 10.1367C17.6741 10.1367 17.1484 9.61102 17.1484 8.96484V3.51562C17.1484 2.86945 17.6741 2.34375 18.3203 2.34375C18.9664 2.34375 19.4921 2.86945 19.4921 3.51562V8.96484ZM46.2109 8.96484C46.2109 9.61102 45.6852 10.1367 45.039 10.1367C44.3929 10.1367 43.8671 9.61102 43.8671 8.96484V3.51562C43.8671 2.86945 44.3929 2.34375 45.039 2.34375C45.6852 2.34375 46.2109 2.86945 46.2109 3.51562V8.96484ZM3.33738 44.0625C3.33738 40.0562 6.59672 36.7969 10.603 36.7969C14.6093 36.7969 17.8686 40.0562 17.8686 44.0625C17.8686 48.0688 14.6093 51.3281 10.603 51.3281C6.59672 51.3281 3.33738 48.0688 3.33738 44.0625Z" fill="#333333"/>
<path d="M54.0516 17.2266C54.3598 17.2266 54.6622 17.1012 54.88 16.8832C55.098 16.6652 55.2235 16.3629 55.2235 16.0547C55.2235 15.7465 55.0981 15.4441 54.88 15.2262C54.6622 15.0082 54.3598 14.8828 54.0516 14.8828C53.7433 14.8828 53.4411 15.0082 53.2231 15.2262C53.0052 15.4441 52.8798 15.7465 52.8798 16.0547C52.8798 16.3629 53.005 16.6652 53.2231 16.8832C53.4412 17.1012 53.7433 17.2266 54.0516 17.2266Z" fill="#333333"/>
<path d="M33.3409 51.6855C33.1229 51.9047 32.9975 52.2059 32.9975 52.5141C32.9975 52.8234 33.1228 53.1246 33.3409 53.3437C33.5588 53.5617 33.8612 53.6859 34.1694 53.6859C34.4776 53.6859 34.7799 53.5617 34.9978 53.3437C35.2157 53.1246 35.3412 52.8223 35.3412 52.5141C35.3412 52.2059 35.2159 51.9047 34.9978 51.6855C34.7799 51.4676 34.4776 51.3434 34.1694 51.3434C33.8612 51.3434 33.5588 51.4676 33.3409 51.6855Z" fill="#333333"/>
<path d="M26.5131 44.5312C28.9686 44.5312 30.9662 42.5336 30.9662 40.0781C30.9662 37.6227 28.9686 35.625 26.5131 35.625C24.0577 35.625 22.06 37.6227 22.06 40.0781C22.06 42.5336 24.0577 44.5312 26.5131 44.5312ZM26.5131 37.9688C27.6762 37.9688 28.6225 38.915 28.6225 40.0781C28.6225 41.2412 27.6762 42.1875 26.5131 42.1875C25.35 42.1875 24.4037 41.2412 24.4037 40.0781C24.4037 38.915 25.35 37.9688 26.5131 37.9688Z" fill="#333333"/>
<path d="M37.4506 44.5312C39.9061 44.5312 41.9037 42.5336 41.9037 40.0781C41.9037 37.6227 39.9061 35.625 37.4506 35.625C34.9952 35.625 32.9975 37.6227 32.9975 40.0781C32.9975 42.5336 34.9952 44.5312 37.4506 44.5312ZM37.4506 37.9688C38.6137 37.9688 39.56 38.915 39.56 40.0781C39.56 41.2412 38.6137 42.1875 37.4506 42.1875C36.2875 42.1875 35.3412 41.2412 35.3412 40.0781C35.3412 38.915 36.2875 37.9688 37.4506 37.9688Z" fill="#333333"/>
<path d="M48.3881 44.5312C50.8436 44.5312 52.8412 42.5336 52.8412 40.0781C52.8412 37.6227 50.8436 35.625 48.3881 35.625C45.9327 35.625 43.935 37.6227 43.935 40.0781C43.935 42.5336 45.9327 44.5312 48.3881 44.5312ZM48.3881 37.9688C49.5512 37.9688 50.4975 38.915 50.4975 40.0781C50.4975 41.2412 49.5512 42.1875 48.3881 42.1875C47.225 42.1875 46.2787 41.2412 46.2787 40.0781C46.2787 38.915 47.225 37.9688 48.3881 37.9688Z" fill="#333333"/>
<path d="M20.0287 27.8906C20.0287 25.4352 18.0311 23.4375 15.5756 23.4375C13.1202 23.4375 11.1225 25.4352 11.1225 27.8906C11.1225 30.3461 13.1202 32.3438 15.5756 32.3438C18.0311 32.3438 20.0287 30.3461 20.0287 27.8906ZM13.4662 27.8906C13.4662 26.7275 14.4125 25.7812 15.5756 25.7812C16.7387 25.7812 17.685 26.7275 17.685 27.8906C17.685 29.0537 16.7387 30 15.5756 30C14.4125 30 13.4662 29.0537 13.4662 27.8906Z" fill="#333333"/>
<path d="M37.4506 32.3438C39.9061 32.3438 41.9037 30.3461 41.9037 27.8906C41.9037 25.4352 39.9061 23.4375 37.4506 23.4375C34.9952 23.4375 32.9975 25.4352 32.9975 27.8906C32.9975 30.3461 34.9952 32.3438 37.4506 32.3438ZM37.4506 25.7812C38.6137 25.7812 39.56 26.7275 39.56 27.8906C39.56 29.0537 38.6137 30 37.4506 30C36.2875 30 35.3412 29.0537 35.3412 27.8906C35.3412 26.7275 36.2875 25.7812 37.4506 25.7812Z" fill="#333333"/>
<path d="M48.3881 32.3438C50.8436 32.3438 52.8412 30.3461 52.8412 27.8906C52.8412 25.4352 50.8436 23.4375 48.3881 23.4375C45.9327 23.4375 43.935 25.4352 43.935 27.8906C43.935 30.3461 45.9327 32.3438 48.3881 32.3438ZM48.3881 25.7812C49.5512 25.7812 50.4975 26.7275 50.4975 27.8906C50.4975 29.0537 49.5512 30 48.3881 30C47.225 30 46.2787 29.0537 46.2787 27.8906C46.2787 26.7275 47.225 25.7812 48.3881 25.7812Z" fill="#333333"/>
<path d="M26.5131 32.3438C28.9686 32.3438 30.9662 30.3461 30.9662 27.8906C30.9662 25.4352 28.9686 23.4375 26.5131 23.4375C24.0577 23.4375 22.06 25.4352 22.06 27.8906C22.06 30.3461 24.0577 32.3438 26.5131 32.3438ZM26.5131 25.7812C27.6762 25.7812 28.6225 26.7275 28.6225 27.8906C28.6225 29.0537 27.6762 30 26.5131 30C25.35 30 24.4037 29.0537 24.4037 27.8906C24.4037 26.7275 25.35 25.7812 26.5131 25.7812Z" fill="#333333"/>
<path d="M8.47549 47.5089C8.69533 47.7286 8.99334 47.8521 9.30412 47.8521C9.6149 47.8521 9.91291 47.7286 10.1328 47.5089L14.7778 42.8638C15.2354 42.4062 15.2354 41.6641 14.7778 41.2065C14.3201 40.7489 13.5783 40.7489 13.1204 41.2065L9.30412 45.023L7.99994 43.7188C7.5422 43.2612 6.80041 43.2612 6.34256 43.7188C5.88494 44.1764 5.88494 44.9184 6.34256 45.3762L8.47549 47.5089Z" fill="#333333"/>
</svg>
