<svg width="76" height="54" viewBox="0 0 76 54" fill="none" xmlns="http://www.w3.org/2000/svg">
<path d="M5.50355 45.1841H70.1155C70.2031 45.1841 70.2887 45.1916 70.375 45.1972V6.61882C70.375 4.03284 68.2786 1.93642 65.6926 1.93642H9.92648C7.3405 1.93642 5.24408 4.03284 5.24408 6.61882V45.1972C5.33036 45.1909 5.41602 45.1841 5.50355 45.1841Z" fill="white"/>
<path d="M63.6747 4.96822H11.4788C9.05834 4.96822 7.09613 6.94458 7.09613 9.38248V43.9834C7.17689 43.9781 7.33899 38.301 7.33899 43.971H67.8145C67.8964 43.971 67.9766 43.9781 68.0573 43.9834V9.38307C68.0573 6.94459 66.0951 4.96822 63.6747 4.96822Z" fill="#F7D145"/>
<path d="M43.016 9.73122H32.4569C31.3778 9.73122 30.5031 10.6059 30.5031 11.6851V38.7997C30.5031 39.8789 31.3778 40.7536 32.4569 40.7536H43.0153C44.0945 40.7536 44.9692 39.8789 44.9692 38.7997V11.6851C44.9698 10.6059 44.0951 9.73122 43.016 9.73122Z" fill="white"/>
<path d="M62.692 9.73122H52.1336C51.0545 9.73122 50.1797 10.6059 50.1797 11.6851V38.7997C50.1797 39.8789 51.0545 40.7536 52.1336 40.7536H62.692C63.7711 40.7536 64.6459 39.8789 64.6459 38.7997V11.6851C64.6459 10.6059 63.7711 9.73122 62.692 9.73122Z" fill="white"/>
<path d="M23.4854 9.73122H12.927C11.8479 9.73122 10.9732 10.6059 10.9732 11.6851V38.7997C10.9732 39.8789 11.8479 40.7536 12.927 40.7536H23.4854C24.5646 40.7536 25.4393 39.8789 25.4393 38.7997V11.6851C25.4399 10.6059 24.5646 9.73122 23.4854 9.73122Z" fill="white"/>
<path d="M37.7366 17.426C39.2197 17.426 40.3789 17.955 41.2142 19.0135C42.2096 20.2665 42.7079 22.3447 42.7079 25.2477C42.7079 28.1438 42.2064 30.2252 41.2042 31.4926C40.3757 32.5367 39.2203 33.0588 37.7372 33.0588C36.2473 33.0588 35.0462 32.4861 34.1346 31.3407C33.2224 30.1952 32.7666 28.1538 32.7666 25.2165C32.7666 22.3341 33.268 20.2596 34.2703 18.9922C35.0981 17.9487 36.2535 17.426 37.7366 17.426ZM37.7366 19.8594C37.3815 19.8594 37.0645 19.9726 36.7863 20.1989C36.508 20.4253 36.2917 20.8304 36.1385 21.4156C35.9366 22.1747 35.8359 23.452 35.8359 25.2477C35.8359 27.044 35.9266 28.2782 36.1079 28.9498C36.2886 29.6219 36.5168 30.0689 36.7919 30.2915C37.067 30.5141 37.3821 30.6254 37.7372 30.6254C38.0924 30.6254 38.4087 30.5122 38.6876 30.2865C38.9665 30.0608 39.1822 29.6544 39.3353 29.0698C39.5373 28.3176 39.638 27.044 39.638 25.2477C39.638 23.4514 39.5473 22.2178 39.3666 21.5457C39.1853 20.8742 38.9577 20.4253 38.6826 20.1989C38.4075 19.9726 38.0917 19.8594 37.7366 19.8594Z" fill="#333333"/>
<path d="M55.8247 9.73122C55.6984 9.84564 55.5777 9.96256 55.4383 10.0714C54.5404 10.771 53.7082 11.2462 52.9423 11.4969V14.1598C54.3972 13.6796 55.6609 12.9381 56.7331 11.9352V22.9944H59.6674V9.73122H55.8247Z" fill="#333333"/>
<path d="M57.2131 31.15C55.8345 31.15 54.6859 31.502 53.7675 32.2047C52.8484 32.9081 52.3019 34.0673 52.1275 35.6823L55.0517 35.9749C55.1074 35.1183 55.3162 34.5062 55.6782 34.1373C56.0402 33.7685 56.5273 33.584 57.14 33.584C57.7596 33.584 58.2454 33.7597 58.5968 34.1117C58.9482 34.4631 59.1239 34.9664 59.1239 35.6204C59.1239 36.2125 58.9219 36.8109 58.518 37.4167C58.2185 37.855 57.4076 38.6909 56.0846 39.9227C55.7726 40.2121 55.4869 40.4873 55.2136 40.7549H59.1733C59.7935 40.164 60.2468 39.6895 60.5225 39.3374C61.0584 38.6553 61.4498 38.0026 61.6973 37.3798C61.9443 36.7565 62.0681 36.1006 62.0681 35.4116C62.0681 34.1999 61.6367 33.187 60.7732 32.3729C59.911 31.5576 58.7243 31.15 57.2131 31.15Z" fill="#333333"/>
<path d="M18.2066 17.426C19.6897 17.426 20.8488 17.955 21.6842 19.0135C22.6795 20.2665 23.1779 22.3447 23.1779 25.2477C23.1779 28.1438 22.6764 30.2252 21.6742 31.4926C20.8457 32.5367 19.6903 33.0588 18.2072 33.0588C16.7173 33.0588 15.5162 32.4861 14.6046 31.3407C13.6924 30.1952 13.2366 28.1538 13.2366 25.2165C13.2366 22.3341 13.738 20.2596 14.7403 18.9922C15.5675 17.9487 16.7229 17.426 18.2066 17.426ZM18.2066 19.8594C17.8515 19.8594 17.5345 19.9726 17.2562 20.1989C16.978 20.4253 16.7617 20.8304 16.6085 21.4156C16.4065 22.1747 16.3059 23.452 16.3059 25.2477C16.3059 27.044 16.3965 28.2782 16.5779 28.9498C16.7585 29.6219 16.9868 30.0689 17.2619 30.2915C17.537 30.5141 17.8521 30.6254 18.2072 30.6254C18.5624 30.6254 18.8787 30.5122 19.1576 30.2865C19.4358 30.0602 19.6521 29.6544 19.8053 29.0698C20.0073 28.3176 20.1079 27.044 20.1079 25.2477C20.1079 23.4514 20.0173 22.2178 19.8366 21.5457C19.6553 20.8742 19.4277 20.4253 19.1526 20.1989C18.8762 19.9726 18.5611 19.8594 18.2066 19.8594Z" fill="#333333"/>
<path d="M31.9393 52.2211H28.4482C28.103 52.2211 27.8229 52.5012 27.8229 52.8463C27.8229 53.1915 28.103 53.4716 28.4482 53.4716H31.9393C32.2844 53.4716 32.5645 53.1915 32.5645 52.8463C32.5645 52.5012 32.2844 52.2211 31.9393 52.2211Z" fill="#333333" stroke="#333333"/>
<path d="M11.8879 48.8603H6.50213C6.157 48.8603 5.87689 49.1404 5.87689 49.4855C5.87689 49.8307 6.157 50.1108 6.50213 50.1108H11.8879C12.2331 50.1108 12.5132 49.8307 12.5132 49.4855C12.5132 49.1404 12.2331 48.8603 11.8879 48.8603Z" fill="#333333" stroke="#333333"/>
<path d="M21.6417 48.8603H16.2559C15.9108 48.8603 15.6307 49.1404 15.6307 49.4855C15.6307 49.8307 15.9108 50.1108 16.2559 50.1108H21.6417C21.9869 50.1108 22.267 49.8307 22.267 49.4855C22.267 49.1404 21.9869 48.8603 21.6417 48.8603Z" fill="#333333" stroke="#333333"/>
<path d="M71.0003 44.647V6.61818C71.0003 3.69145 68.6194 1.31055 65.6926 1.31055H9.92651C6.99977 1.31055 4.61887 3.69145 4.61887 6.61818V44.6464C2.55809 45.0584 1 46.8809 1 49.0611V52.8457C1 53.1908 1.28011 53.4709 1.62524 53.4709H24.427C24.7721 53.4709 25.0522 53.1908 25.0522 52.8457C25.0522 52.5006 24.7721 52.2205 24.427 52.2205H2.25047V49.0618C2.25047 47.268 3.70915 45.8093 5.50296 45.8093H70.115C71.9088 45.8093 73.3674 47.268 73.3674 49.0618V52.2211H35.5881C35.243 52.2211 34.9629 52.5012 34.9629 52.8463C34.9629 53.1915 35.243 53.4716 35.5881 53.4716H73.9933C74.3384 53.4716 74.6185 53.1915 74.6185 52.8463V49.0618C74.6185 46.8816 73.0611 45.059 71.0003 44.647ZM9.92651 2.56102H65.692C67.9291 2.56102 69.7492 4.38108 69.7492 6.61818V44.5582H5.86935V6.61818C5.86935 4.38108 7.68941 2.56102 9.92651 2.56102Z" fill="#333333" stroke="#333333"/>
</svg>
