<svg width="75" height="64" viewBox="0 0 75 64" fill="none" xmlns="http://www.w3.org/2000/svg">
<path d="M71.0515 48.8521L65.2536 27.1161C64.6445 24.8324 62.3076 23.4772 60.0343 24.0891L38.3962 29.9131C36.1227 30.525 34.7736 32.8724 35.3827 35.1561L41.1807 56.8922C41.7898 59.1759 44.1267 60.5311 46.4001 59.9192L68.0382 54.095C70.3115 53.4834 71.6606 51.136 71.0515 48.8521Z" fill="#F7D145"/>
<path d="M58.3578 36.683C60.3797 36.683 62.0188 35.0439 62.0188 33.0219C62.0188 31 60.3797 29.3609 58.3578 29.3609C56.3358 29.3609 54.6967 31 54.6967 33.0219C54.6967 35.0439 56.3358 36.683 58.3578 36.683Z" fill="#FFF9EB"/>
<path d="M48.0016 54.6168C50.0235 54.6168 51.6626 52.9777 51.6626 50.9557C51.6626 48.9338 50.0235 47.2947 48.0016 47.2947C45.9796 47.2947 44.3405 48.9338 44.3405 50.9557C44.3405 52.9777 45.9796 54.6168 48.0016 54.6168Z" fill="#FFF9EB"/>
<path d="M53.1829 45.6507C55.205 45.6507 56.8442 44.0115 56.8442 41.9895C56.8442 39.9675 55.205 38.3283 53.1829 38.3283C51.1609 38.3283 49.5217 39.9675 49.5217 41.9895C49.5217 44.0115 51.1609 45.6507 53.1829 45.6507Z" fill="#FFF9EB"/>
<path d="M74.7919 49.4852C74.7903 49.4852 74.7903 49.4836 74.7903 49.4836C74.6471 48.9515 74.1637 48.5805 73.6122 48.5805C73.5064 48.5805 73.3989 48.5951 73.2965 48.6228C72.981 48.7058 72.7189 48.9092 72.5561 49.1907C72.3918 49.4738 72.3495 49.8025 72.4341 50.1166C72.5171 50.429 72.5596 50.7479 72.5596 51.0669C72.5578 52.7219 71.4417 54.175 69.8452 54.6013L45.058 61.2423C44.7474 61.3252 44.4266 61.3676 44.1077 61.3692C42.4528 61.3676 40.9997 60.2511 40.575 58.6532L33.9328 33.8663C33.8496 33.5539 33.8073 33.2348 33.8073 32.9159C33.8073 31.2608 34.9236 29.8077 36.5215 29.3814L61.3071 22.7405C61.6179 22.6575 61.9385 22.6152 62.2574 22.6135C63.9123 22.6152 65.3655 23.7316 65.7917 25.3295L71.1698 45.4006C71.313 45.9343 71.7977 46.3053 72.3477 46.3053C72.4535 46.3053 72.561 46.2923 72.6634 46.2646C73.3143 46.0905 73.7015 45.4185 73.5274 44.7692C73.5274 44.7692 73.5274 44.7676 73.5258 44.7676L68.1495 24.6981C67.7933 23.3736 67.03 22.2376 65.9416 21.4143C64.8855 20.6137 63.5787 20.1726 62.2574 20.1726C61.7237 20.1726 61.1916 20.2442 60.6757 20.3825L35.8901 27.0234C34.5656 27.3798 33.4298 28.1447 32.6064 29.2333C31.8059 30.2896 31.3665 31.5978 31.3665 32.9159C31.3665 33.4496 31.4365 33.9818 31.5764 34.4993L38.2171 59.2864C38.5734 60.6093 39.3367 61.7452 40.4252 62.5702C41.4812 63.3692 42.788 63.8087 44.1059 63.8087H44.1075C44.6398 63.8087 45.1717 63.7387 45.6893 63.6004L70.4764 56.9595C71.8011 56.6031 72.9367 55.8383 73.7603 54.7497C74.5592 53.6935 75.0002 52.3868 75.0002 51.067C75.0002 50.5348 74.9301 50.0027 74.7919 49.4852Z" fill="#333333"/>
<path d="M59.6248 37.7386C62.2248 37.0418 63.7732 34.3597 63.0766 31.7596C62.3798 29.1594 59.698 27.611 57.0979 28.3074C55.8385 28.6449 54.7857 29.4528 54.1336 30.5821C53.4816 31.7114 53.3086 33.027 53.6461 34.2864C53.9834 35.5461 54.7912 36.5989 55.9206 37.2509C56.6729 37.6852 57.5075 37.907 58.3535 37.907C58.7774 37.907 59.2043 37.8512 59.6248 37.7386ZM56.0036 33.6546C55.8349 33.0249 55.9214 32.367 56.2474 31.8024C56.5735 31.2377 57.0997 30.8338 57.7296 30.6651C57.9403 30.6086 58.1522 30.5816 58.3606 30.5816C59.4382 30.5816 60.427 31.302 60.7189 32.3911C61.0672 33.6912 60.2929 35.0322 58.993 35.3806C58.3631 35.5495 57.7052 35.4624 57.1409 35.1368C56.5764 34.8109 56.1724 34.2845 56.0036 33.6546Z" fill="#333333"/>
<path d="M46.7421 46.2446C44.1422 46.9414 42.5939 49.6235 43.2905 52.2236C43.6278 53.4833 44.4355 54.5359 45.565 55.1879C46.3172 55.6224 47.1518 55.8442 47.9978 55.8442C48.4217 55.8442 48.8487 55.7884 49.2692 55.6758C51.8691 54.979 53.4176 52.2969 52.7209 49.6966C52.0242 47.0965 49.3427 45.5477 46.7421 46.2446ZM48.6373 53.3179C48.0073 53.4867 47.3499 53.3999 46.7852 53.074C46.2206 52.7479 45.8167 52.2217 45.648 51.592C45.2997 50.2918 46.074 48.9508 47.3738 48.6023C48.6729 48.2541 50.0147 49.0281 50.3633 50.3283C50.7117 51.6286 49.9374 52.9695 48.6373 53.3179Z" fill="#333333"/>
<path d="M58.0649 41.9915C58.0649 39.2996 55.875 37.1095 53.1833 37.1095C50.4916 37.1095 48.3017 39.2996 48.3017 41.9915C48.3017 44.6833 50.4916 46.8734 53.1833 46.8734C55.875 46.8734 58.0649 44.6833 58.0649 41.9915ZM50.7425 41.9915C50.7425 40.6456 51.8375 39.5505 53.1833 39.5505C54.5292 39.5505 55.6241 40.6454 55.6241 41.9915C55.6241 43.3373 54.5292 44.4324 53.1833 44.4324C51.8375 44.4324 50.7425 43.3375 50.7425 41.9915Z" fill="#333333"/>
<path d="M49.3917 25.7291L31.3289 9.59529C29.4311 7.9002 26.5203 8.056 24.8274 9.9434L8.71425 27.9071C7.02134 29.7945 7.18736 32.6987 9.08518 34.3937L27.148 50.5274C29.0459 52.2225 31.9567 52.0667 33.6496 50.1793L49.7626 32.2158C51.4556 30.3284 51.2895 27.4242 49.3917 25.7291Z" fill="white"/>
<path d="M47.7568 26.1229L31.2045 11.3411C29.4654 9.78809 26.7984 9.93039 25.2476 11.6591L10.4865 28.1122C8.93566 29.8409 9.08818 32.5013 10.8273 34.0543L27.3796 48.8359C29.1187 50.389 31.7857 50.2467 33.3366 48.518L48.0976 32.0649C49.6484 30.3363 49.4959 27.6759 47.7568 26.1229Z" fill="#F7D145"/>
<path d="M27.0902 23.043C28.8945 23.9556 31.097 23.2328 32.0096 21.4286C32.9222 19.6243 32.1994 17.4218 30.3952 16.5092C28.5909 15.5965 26.3884 16.3194 25.4758 18.1236C24.5632 19.9279 25.286 22.1303 27.0902 23.043Z" fill="#FFF9EB"/>
<path d="M38.0013 32.8114C39.8056 33.724 42.008 33.0012 42.9207 31.1969C43.8333 29.3927 43.1105 27.1902 41.3062 26.2776C39.502 25.3649 37.2995 26.0877 36.3869 27.892C35.4742 29.6963 36.197 31.8987 38.0013 32.8114Z" fill="#FFF9EB"/>
<path d="M17.322 33.9565C19.1263 34.8691 21.3287 34.1463 22.2414 32.3421C23.154 30.5378 22.4312 28.3354 20.6269 27.4227C18.8227 26.5101 16.6202 27.2329 15.7076 29.0371C14.7949 30.8414 15.5177 33.0439 17.322 33.9565Z" fill="#FFF9EB"/>
<path d="M28.2341 43.7216C30.0384 44.6342 32.2409 43.9114 33.1535 42.1071C34.0661 40.3029 33.3433 38.1004 31.5391 37.1878C29.7348 36.2751 27.5323 36.9979 26.6197 38.8022C25.7071 40.6065 26.4299 42.8089 28.2341 43.7216Z" fill="#FFF9EB"/>
<path d="M27.5665 53.681L27.5717 53.6746L27.5681 53.6818C28.7442 54.2767 30.1085 54.4745 31.412 54.2367C32.7551 53.9933 33.9489 53.3242 34.864 52.3043C35.3131 51.8021 35.2702 51.0291 34.7694 50.5806C34.6889 50.5089 34.6012 50.4481 34.5053 50.3997C34.0146 50.1514 33.4137 50.2651 33.0457 50.6752C31.944 51.9087 30.1435 52.249 28.6675 51.5043C28.3814 51.3596 28.1167 51.1764 27.8768 50.9621L8.75582 33.8481C7.52251 32.7465 7.18215 30.9459 7.92917 29.4691C8.07313 29.1845 8.25484 28.919 8.46991 28.6777L25.5851 9.55726C26.6853 8.32308 28.4858 7.98272 29.9633 8.72822C30.2479 8.87217 30.5148 9.05461 30.7554 9.27114L49.8751 26.3845C51.1073 27.4855 51.4472 29.286 50.7018 30.7635C50.5578 31.0481 50.3754 31.315 50.161 31.5549L36.3026 47.0379C36.0845 47.2813 35.974 47.5938 35.9936 47.9192C36.011 48.2453 36.1552 48.5443 36.3972 48.7616C36.4777 48.8332 36.5654 48.8941 36.6613 48.9425C37.1521 49.1908 37.7528 49.0771 38.1209 48.667C38.1216 48.6655 38.1216 48.6655 38.1224 48.6641L51.9799 33.1827C52.3369 32.7834 52.6395 32.3399 52.8796 31.8651C53.4753 30.6875 53.6732 29.3232 53.4355 28.0195C53.192 26.6763 52.5239 25.4812 51.5019 24.5667L32.3831 7.45199C31.9837 7.09493 31.5413 6.79095 31.0651 6.55004C29.8889 5.95513 28.5225 5.75812 27.2194 5.99454C25.8756 6.23935 24.6819 6.90855 23.7661 7.92964L6.65097 27.0499C6.29311 27.4506 5.99065 27.8939 5.75114 28.3674C5.15549 29.545 4.95769 30.9094 5.19542 32.2131C5.43879 33.5562 6.10702 34.7514 7.12812 35.6673L26.2478 52.7806C26.647 53.1377 27.0903 53.4402 27.5665 53.681Z" fill="#333333"/>
<path d="M32.3807 23.032C33.2504 22.0603 33.6899 20.8083 33.6177 19.5063C33.5456 18.2043 32.9708 17.0082 31.9992 16.1387C29.9941 14.3438 26.9015 14.5148 25.1061 16.5206C23.3108 18.5264 23.482 21.6186 25.4875 23.4139C25.812 23.7043 26.1677 23.9467 26.546 24.138C27.3007 24.5198 28.1459 24.6988 29.013 24.6507C30.3152 24.5785 31.5111 24.0038 32.3807 23.032ZM28.8784 22.2134C28.2272 22.2493 27.6013 22.0297 27.1156 21.595C26.1129 20.6973 26.0273 19.1513 26.9248 18.1483C27.677 17.3081 28.8843 17.1117 29.846 17.5981C30.032 17.6922 30.2088 17.8119 30.3714 17.9574C30.3714 17.9574 30.3714 17.9574 30.3715 17.9575C30.8573 18.3923 31.1446 18.9902 31.1807 19.6413C31.2167 20.2922 30.9971 20.9182 30.5622 21.4041C30.1273 21.89 29.5292 22.1774 28.8784 22.2134Z" fill="#333333"/>
<path d="M43.2926 32.7994C45.0878 30.7937 44.9167 27.7014 42.9111 25.9061C40.9061 24.1109 37.8132 24.2821 36.018 26.288C34.2228 28.2938 34.3939 31.386 36.3994 33.1813C36.7247 33.4724 37.0783 33.7116 37.4506 33.9C39.3735 34.8726 41.7883 34.4799 43.2926 32.7994ZM41.4741 31.1715C40.5762 32.1744 39.0297 32.2597 38.0275 31.3625C37.0247 30.4649 36.9391 28.9188 37.8367 27.9158C38.5889 27.0755 39.7962 26.8791 40.7579 27.3655C40.9439 27.4596 41.1208 27.5793 41.2833 27.7248C42.2859 28.6224 42.3715 30.1686 41.4741 31.1715Z" fill="#333333"/>
<path d="M22.2317 27.0515C21.2596 26.1815 20.0079 25.7424 18.706 25.8146C17.404 25.8867 16.2081 26.4616 15.3384 27.4331C14.4687 28.4048 14.0293 29.6568 14.1014 30.9589C14.1735 32.2609 14.7482 33.4568 15.7197 34.3265C16.0451 34.6177 16.3984 34.8568 16.7709 35.0452C18.6938 36.0178 21.1088 35.625 22.6131 33.9446C24.4085 31.9391 24.2372 28.8467 22.2317 27.0515ZM20.7946 32.317C19.8968 33.3197 18.3501 33.4054 17.3478 32.508C16.862 32.0731 16.5747 31.4752 16.5386 30.8242C16.5026 30.1732 16.7223 29.5471 17.1571 29.0613C17.592 28.5756 18.1901 28.2882 18.8409 28.2522C19.2747 28.2281 19.697 28.3176 20.0745 28.5085C20.2637 28.6042 20.4415 28.7253 20.6036 28.8706C21.6065 29.768 21.6921 31.314 20.7946 32.317Z" fill="#333333"/>
<path d="M33.1438 36.819C31.1379 35.024 28.0457 35.195 26.2505 37.2008C24.4553 39.2065 24.6264 42.2988 26.6319 44.0941C26.9565 44.3844 27.3121 44.6269 27.6904 44.8182C28.4452 45.2 29.2903 45.3789 30.1574 45.3309C31.4594 45.2588 32.6554 44.6839 33.5251 43.7123C35.3203 41.7066 35.1494 38.6142 33.1438 36.819ZM31.7066 42.0844C31.2717 42.5702 30.6736 42.8576 30.0228 42.8936C29.3717 42.9295 28.7458 42.7098 28.2601 42.2752C27.2573 41.3775 27.1717 39.8315 28.0693 38.8285C28.8214 37.9883 30.0289 37.7919 30.9906 38.2784C31.1766 38.3724 31.3534 38.4922 31.5161 38.6377L31.516 38.6377C32.5185 39.5352 32.6041 41.0816 31.7066 42.0844Z" fill="#333333"/>
</svg>
