<svg width="80" height="41" viewBox="0 0 80 41" fill="none" xmlns="http://www.w3.org/2000/svg">
<path d="M69.5825 8.83117C66.3778 5.70111 62.1168 3.9773 57.5846 3.9773C52.1244 3.9773 48.3351 6.18962 45.2905 7.96709C43.1577 9.21237 41.3154 10.2878 39.4194 10.2878C37.5233 10.2878 35.6811 9.21237 33.5482 7.96709C30.5036 6.18962 26.7145 3.9773 21.2541 3.9773C11.8982 3.9773 4.2865 11.4116 4.2865 20.5494C4.2865 29.6872 11.8982 37.1215 21.2541 37.1215C26.7144 37.1215 30.5036 34.9092 33.5482 33.1317C35.6811 31.8864 37.5233 30.811 39.4194 30.811C41.3154 30.811 43.1577 31.8864 45.2905 33.1317C48.3351 34.9092 52.1242 37.1215 57.5846 37.1215C66.9405 37.1215 74.5522 29.6872 74.5522 20.5494C74.5522 17.6363 73.7673 14.7714 72.2825 12.2641C71.958 11.7162 72.1402 11.0192 72.6862 10.6869C72.2467 10.0464 71.7655 9.43541 71.2465 8.85753C70.777 9.28662 70.0407 9.27866 69.5825 8.83117ZM31.3259 21.3329C28.7569 24.1143 25.0858 25.7098 21.2541 25.7098C17.4224 25.7098 13.7513 24.1145 11.1823 21.3329C10.7711 20.8877 10.7711 20.2109 11.1823 19.7658C13.7513 16.9843 17.4224 15.3889 21.2541 15.3889C25.0858 15.3889 28.7569 16.9842 31.3259 19.7658C31.7371 20.2111 31.7371 20.8877 31.3259 21.3329ZM67.6564 21.3329C65.0874 24.1143 61.4164 25.7098 57.5846 25.7098C53.7529 25.7098 50.0819 24.1145 47.5129 21.3329C47.1016 20.8877 47.1016 20.2109 47.5129 19.7658C50.0819 16.9843 53.7529 15.3889 57.5846 15.3889C61.4164 15.3889 65.0874 16.9842 67.6564 19.7658C68.0677 20.2111 68.0677 20.8877 67.6564 21.3329Z" fill="#F7D145"/>
<path d="M76.4619 10.1732C76.1139 9.57139 75.3437 9.36597 74.7421 9.71387C74.7298 9.72092 74.7189 9.72914 74.707 9.73653C74.1332 10.0942 73.9417 10.844 74.2828 11.4335C75.8433 14.1313 76.6682 17.2138 76.6682 20.3482C76.6682 30.1803 68.6691 38.1793 58.8371 38.1793C53.0989 38.1793 49.1169 35.7989 45.9173 33.8864C43.6759 32.5466 41.7399 31.3894 39.7474 31.3894C37.7548 31.3894 35.8188 32.5466 33.5774 33.8864C30.3779 35.7989 26.3959 38.1793 20.6576 38.1793C10.8256 38.1793 2.82653 30.1803 2.82653 20.3482C2.82653 10.5162 10.8256 2.51716 20.6576 2.51716C26.3958 2.51716 30.3779 4.89755 33.5774 6.81005C35.8188 8.14994 37.7548 9.30707 39.7474 9.30707C41.7399 9.30707 43.6759 8.14994 45.9173 6.81005C49.1169 4.89755 53.0988 2.51716 58.8371 2.51716C63.5999 2.51716 68.0777 4.37193 71.4456 7.73978C71.927 8.22143 72.7007 8.22982 73.1943 7.76814C73.2047 7.75841 73.2156 7.74985 73.2256 7.73978C73.7172 7.24823 73.7172 6.45124 73.2256 5.95986C69.3824 2.11657 64.2724 2.31398e-09 58.8371 2.31398e-09C52.4038 2.31398e-09 47.9082 2.68733 44.6258 4.64951C42.7044 5.79808 41.045 6.78991 39.7474 6.78991C38.4498 6.78991 36.7903 5.79791 34.8689 4.64951C31.5865 2.68733 27.0909 2.31398e-09 20.6576 2.31398e-09C9.43754 -0.00016782 0.309204 9.12817 0.309204 20.3482C0.309204 31.5683 9.43754 40.6967 20.6576 40.6967C27.0909 40.6967 31.5865 38.0093 34.8689 36.0471C36.7903 34.8986 38.4498 33.9067 39.7474 33.9067C41.045 33.9067 42.7044 34.8987 44.6258 36.0471C47.9082 38.0093 52.4038 40.6967 58.8371 40.6967C70.0572 40.6967 79.1855 31.5683 79.1855 20.3482C79.1855 16.7718 78.2437 13.2532 76.4619 10.1732Z" fill="#333333"/>
<path d="M58.8372 14.7959C54.8105 14.7959 50.9526 16.5123 48.2528 19.5053C47.8207 19.9842 47.8207 20.7124 48.2528 21.1914C50.9526 24.1841 54.8105 25.9008 58.8372 25.9008C62.8639 25.9008 66.7218 24.1843 69.4215 21.1914C69.8537 20.7124 69.8537 19.9842 69.4215 19.5053C66.7218 16.5123 62.8639 14.7959 58.8372 14.7959ZM58.8372 23.3833C57.0431 23.3833 55.2896 22.9693 53.7058 22.1988C52.1086 21.4218 52.1085 19.2747 53.7057 18.4976C55.2895 17.7272 57.0431 17.3132 58.8372 17.3132C60.6313 17.3132 62.3847 17.7272 63.9685 18.4976C65.5657 19.2746 65.5657 21.4218 63.9685 22.1989C62.3847 22.9693 60.6312 23.3833 58.8372 23.3833Z" fill="#333333"/>
<path d="M20.6577 14.7959C16.631 14.7959 12.7731 16.5123 10.0733 19.5053C9.64117 19.9842 9.64117 20.7124 10.0733 21.1914C12.7731 24.1841 16.631 25.9008 20.6577 25.9008C24.6844 25.9008 28.5423 24.1843 31.242 21.1914C31.6742 20.7124 31.6742 19.9842 31.242 19.5053C28.5423 16.5123 24.6844 14.7959 20.6577 14.7959ZM20.6577 23.3833C18.8636 23.3833 17.1101 22.9693 15.5263 22.1988C13.929 21.4218 13.929 19.2747 15.5262 18.4976C17.11 17.7272 18.8636 17.3132 20.6577 17.3132C22.4518 17.3132 24.2052 17.7272 25.789 18.4976C27.3862 19.2746 27.3862 21.4218 25.789 22.1989C24.2052 22.9693 22.4517 23.3833 20.6577 23.3833Z" fill="#333333"/>
</svg>
