<svg width="78" height="58" viewBox="0 0 78 58" fill="none" xmlns="http://www.w3.org/2000/svg">
<path d="M73.8403 52.5141L50.0458 52.0285C48.6142 52.0285 48.1034 50.5097 48.1034 49.1149V16.3358C48.1034 14.941 48.7785 14.0302 50.21 14.0302H69.2199L76.2683 21.4356V50.0861C76.2683 51.4809 75.2718 52.5141 73.8403 52.5141Z" fill="white"/>
<path d="M51.624 33.3904C51.624 32.2859 52.5194 31.3904 53.624 31.3904H70.9905C72.095 31.3904 72.9905 32.2859 72.9905 33.3904V46.7507C72.9905 47.8553 72.095 48.7507 70.9905 48.7507H53.624C52.5194 48.7507 51.624 47.8553 51.624 46.7507V33.3904Z" fill="#F7D145"/>
<path fill-rule="evenodd" clip-rule="evenodd" d="M76.7539 26.2916H48.589V17.6015C48.589 15.8082 49.2641 14.6372 50.6956 14.6372H69.7055L76.7539 24.1584V26.2916Z" fill="#F7D145"/>
<path d="M50.8821 53.2569H62.3072H73.7324C75.8217 53.2569 77.4967 51.5276 77.4967 49.4184V21.041C77.4967 20.6906 77.3605 20.3524 77.1151 20.1014L69.7704 12.5897C69.5246 12.3384 69.1887 12.1948 68.8359 12.1948H50.8821C48.7927 12.1948 47.1178 13.9241 47.1178 16.0333V49.4184C47.1178 51.5276 48.7927 53.2569 50.8821 53.2569ZM49.7499 16.0333C49.7499 15.3769 50.2674 14.864 50.8821 14.864H68.2876L74.8645 21.5905V49.4184C74.8645 50.0748 74.347 50.5877 73.7324 50.5877H50.8821C50.2674 50.5877 49.7499 50.0748 49.7499 49.4184V16.0333Z" fill="#333333" stroke="white"/>
<path d="M52.4458 48.7507H72.1687C72.6225 48.7507 72.9905 48.3702 72.9905 47.9009V30.9048C72.9905 30.4355 72.6225 30.055 72.1687 30.055H52.4458C51.9919 30.055 51.624 30.4355 51.624 30.9048V47.9009C51.624 48.3702 51.9919 48.7507 52.4458 48.7507ZM53.2676 41.9523H56.5547V47.0511H53.2676V41.9523ZM63.129 36.0037V31.7546H66.4162V40.2527H53.2676V36.8535H62.3072C62.7611 36.8535 63.129 36.473 63.129 36.0037ZM61.4854 41.9523V47.0511H58.1983V41.9523H61.4854ZM63.129 41.9523H66.4162V47.0511H63.129V41.9523ZM71.3469 47.0511H68.0597V31.7546H71.3469V47.0511ZM61.4854 31.7546V35.1539H53.2676V31.7546H61.4854Z" fill="#333333"/>
<path d="M51.624 17.3687C51.624 16.9999 51.9229 16.701 52.2917 16.701C52.6604 16.701 52.9594 16.9999 52.9594 17.3687C52.9594 17.7374 52.6604 18.0364 52.2917 18.0364C51.9229 18.0364 51.624 17.7374 51.624 17.3687Z" fill="#333333"/>
<path d="M54.2948 17.3687C54.2948 16.9999 54.5937 16.701 54.9625 16.701H60.3041C60.6729 16.701 60.9718 16.9999 60.9718 17.3687C60.9718 17.7374 60.6729 18.0364 60.3041 18.0364H54.9625C54.5937 18.0364 54.2948 17.7374 54.2948 17.3687Z" fill="#333333"/>
<path d="M51.624 21.3749C51.624 21.0061 51.9229 20.7072 52.2917 20.7072H62.9749C63.3437 20.7072 63.6426 21.0061 63.6426 21.3749C63.6426 21.7437 63.3437 22.0426 62.9749 22.0426H52.2917C51.9229 22.0426 51.624 21.7437 51.624 21.3749Z" fill="#333333"/>
<path d="M27.2225 52.5141L3.42801 52.0285C1.99645 52.0285 1.4856 50.5097 1.4856 49.1149V16.3358C1.4856 14.941 2.16069 14.0302 3.59226 14.0302H22.6021L29.6505 21.4356V50.0861C29.6505 51.4809 28.6541 52.5141 27.2225 52.5141Z" fill="white"/>
<path d="M5.00622 33.3904C5.00622 32.2859 5.90165 31.3904 7.00622 31.3904H24.3727C25.4773 31.3904 26.3727 32.2859 26.3727 33.3904V46.7507C26.3727 47.8553 25.4773 48.7507 24.3727 48.7507H7.00621C5.90165 48.7507 5.00622 47.8553 5.00622 46.7507V33.3904Z" fill="#F7D145"/>
<path fill-rule="evenodd" clip-rule="evenodd" d="M30.1361 26.2916H1.97121V17.6015C1.97121 15.8082 2.6463 14.6372 4.07786 14.6372H23.0878L30.1361 24.1584V26.2916Z" fill="#F7D145"/>
<path d="M4.26432 53.2569H15.6895H27.1146C29.204 53.2569 30.8789 51.5276 30.8789 49.4184V21.041C30.8789 20.6906 30.7427 20.3524 30.4973 20.1014L23.1526 12.5897C22.9068 12.3384 22.5709 12.1948 22.2181 12.1948H4.26432C2.17494 12.1948 0.5 13.9241 0.5 16.0333V49.4184C0.5 51.5276 2.17494 53.2569 4.26432 53.2569ZM3.13216 16.0333C3.13216 15.3769 3.64964 14.864 4.26432 14.864H21.6698L28.2468 21.5905V49.4184C28.2468 50.0748 27.7293 50.5877 27.1146 50.5877H4.26432C3.64965 50.5877 3.13216 50.0748 3.13216 49.4184V16.0333Z" fill="#333333" stroke="white"/>
<path d="M5.82801 48.7507H25.5509C26.0047 48.7507 26.3727 48.3702 26.3727 47.9009V30.9048C26.3727 30.4355 26.0047 30.055 25.5509 30.055H5.82801C5.37418 30.055 5.00622 30.4355 5.00622 30.9048V47.9009C5.00622 48.3702 5.37418 48.7507 5.82801 48.7507ZM6.64979 41.9523H9.93695V47.0511H6.64979V41.9523ZM16.5112 36.0037V31.7546H19.7984V40.2527H6.64979V36.8535H15.6895C16.1433 36.8535 16.5112 36.473 16.5112 36.0037ZM14.8677 41.9523V47.0511H11.5805V41.9523H14.8677ZM16.5112 41.9523H19.7984V47.0511H16.5112V41.9523ZM24.7291 47.0511H21.442V31.7546H24.7291V47.0511ZM14.8677 31.7546V35.1539H6.64979V31.7546H14.8677Z" fill="#333333"/>
<path d="M5.00622 17.3687C5.00622 16.9999 5.30516 16.701 5.67392 16.701C6.04268 16.701 6.34162 16.9999 6.34162 17.3687C6.34162 17.7374 6.04268 18.0364 5.67392 18.0364C5.30516 18.0364 5.00622 17.7374 5.00622 17.3687Z" fill="#333333"/>
<path d="M7.67702 17.3687C7.67702 16.9999 7.97597 16.701 8.34473 16.701H13.6863C14.0551 16.701 14.3541 16.9999 14.3541 17.3687C14.3541 17.7374 14.0551 18.0364 13.6863 18.0364H8.34473C7.97597 18.0364 7.67702 17.7374 7.67702 17.3687Z" fill="#333333"/>
<path d="M5.00622 21.3749C5.00622 21.0061 5.30516 20.7072 5.67392 20.7072H16.3572C16.7259 20.7072 17.0249 21.0061 17.0249 21.3749C17.0249 21.7437 16.7259 22.0426 16.3572 22.0426H5.67392C5.30516 22.0426 5.00622 21.7437 5.00622 21.3749Z" fill="#333333"/>
<path d="M53.9448 55.9573L21.1044 55.2871C19.1286 55.2871 18.4236 53.1909 18.4236 51.2658V6.0252C18.4236 4.10016 19.3553 2.84309 21.3311 2.84309H47.5679L57.2958 13.0638V52.6063C57.2958 54.5313 55.9206 55.9573 53.9448 55.9573Z" fill="white"/>
<path d="M23.2824 28.8031C23.2824 27.6985 24.1779 26.8031 25.2824 26.8031H50.7717C51.8763 26.8031 52.7717 27.6985 52.7717 28.8031V48.7632C52.7717 49.8677 51.8763 50.7632 50.7717 50.7632H25.2824C24.1779 50.7632 23.2824 49.8677 23.2824 48.7632V28.8031Z" fill="#F7D145"/>
<path fill-rule="evenodd" clip-rule="evenodd" d="M57.9659 19.7659H19.0937V7.77213C19.0937 5.29708 20.0254 3.68085 22.0012 3.68085H48.238L57.9659 16.8218V19.7659Z" fill="#F7D145"/>
<path d="M48.1916 0.987919L48.1916 0.987918C47.8877 0.67706 47.4728 0.5 47.0378 0.5H22.2586C19.4839 0.5 17.2533 2.79763 17.2533 5.6077V51.6847C17.2533 54.4948 19.4839 56.7924 22.2586 56.7924H38.0271H53.7957C56.5704 56.7924 58.801 54.4948 58.801 51.6847V12.5193C58.801 12.0847 58.6321 11.6657 58.3286 11.3552L48.1916 0.987919ZM20.5059 5.6077C20.5059 4.6009 21.3012 3.80385 22.2586 3.80385H46.361L55.5484 13.2V51.6847C55.5484 52.6915 54.7531 53.4886 53.7957 53.4886H22.2586C21.3012 53.4886 20.5059 52.6915 20.5059 51.6847V5.6077Z" fill="#333333" stroke="white"/>
<path d="M24.4166 50.7632H51.6375C52.2639 50.7632 52.7717 50.238 52.7717 49.5903V26.1329C52.7717 25.4852 52.2639 24.9601 51.6375 24.9601H24.4166C23.7903 24.9601 23.2824 25.4852 23.2824 26.1329V49.5903C23.2824 50.238 23.7903 50.7632 24.4166 50.7632ZM25.5509 41.3802H30.0877V48.4174H25.5509V41.3802ZM39.1613 33.1701V27.3058H43.6981V39.0345H25.5509V34.343H38.0271C38.6534 34.343 39.1613 33.8178 39.1613 33.1701ZM36.8929 41.3802V48.4174H32.3561V41.3802H36.8929ZM39.1613 41.3802H43.6981V48.4174H39.1613V41.3802ZM50.5033 48.4174H45.9665V27.3058H50.5033V48.4174ZM36.8929 27.3058V31.9973H25.5509V27.3058H36.8929Z" fill="#333333"/>
<path d="M23.2824 7.45078C23.2824 6.94182 23.695 6.52924 24.204 6.52924C24.7129 6.52924 25.1255 6.94182 25.1255 7.45078C25.1255 7.95973 24.7129 8.37232 24.204 8.37232C23.695 8.37232 23.2824 7.95973 23.2824 7.45078Z" fill="#333333"/>
<path d="M26.9686 7.45078C26.9686 6.94182 27.3811 6.52924 27.8901 6.52924H35.2624C35.7714 6.52924 36.184 6.94182 36.184 7.45078C36.184 7.95973 35.7714 8.37232 35.2624 8.37232H27.8901C27.3811 8.37232 26.9686 7.95973 26.9686 7.45078Z" fill="#333333"/>
<path d="M23.2824 12.98C23.2824 12.4711 23.695 12.0585 24.204 12.0585H38.9486C39.4576 12.0585 39.8702 12.4711 39.8702 12.98C39.8702 13.489 39.4576 13.9016 38.9486 13.9016H24.204C23.695 13.9016 23.2824 13.489 23.2824 12.98Z" fill="#333333"/>
</svg>
